<svg width="24" height="28" viewBox="0 0 24 28" fill="none" xmlns="http://www.w3.org/2000/svg">
<path fill-rule="evenodd" clip-rule="evenodd" d="M2 1.5H18.0158C18.292 1.5 18.5158 1.72385 18.5158 2V13H20.0158V2C20.0158 0.895431 19.1204 0 18.0158 0H2C0.895431 0 0 0.895432 0 2V24.8426C0 25.9471 0.895427 26.8426 2 26.8426H11V25.3426H2C1.72386 25.3426 1.5 25.1187 1.5 24.8426V2C1.5 1.72386 1.72386 1.5 2 1.5Z" fill="#FCA311"/>
<rect x="3.27563" y="6.32468" width="12.0095" height="1.4557" rx="0.727849" fill="#FCA311"/>
<rect x="3.27563" y="10.6918" width="12.0095" height="1.4557" rx="0.727849" fill="#FCA311"/>
<rect x="3.27563" y="14.9209" width="8.00634" height="1.4557" rx="0.727849" fill="#FCA311"/>
<path d="M17.4754 18.2759V20.6439M17.4754 20.6439V23.0119M17.4754 20.6439H19.8434M17.4754 20.6439H15.1074" stroke="#FCA311" stroke-linecap="round"/>
<path d="M17.4752 26.5639C20.7447 26.5639 23.3952 23.9134 23.3952 20.6439C23.3952 17.3744 20.7447 14.7239 17.4752 14.7239C14.2057 14.7239 11.5552 17.3744 11.5552 20.6439C11.5552 23.9134 14.2057 26.5639 17.4752 26.5639Z" stroke="#FCA311"/>
</svg>
