<svg width="21" height="27" viewBox="0 0 21 27" fill="none" xmlns="http://www.w3.org/2000/svg">
<path fill-rule="evenodd" clip-rule="evenodd" d="M18.0158 1.5H2C1.72386 1.5 1.5 1.72386 1.5 2V24.8426C1.5 25.1187 1.72386 25.3426 2 25.3426H18.0158C18.292 25.3426 18.5158 25.1187 18.5158 24.8426V2C18.5158 1.72385 18.292 1.5 18.0158 1.5ZM2 0C0.895431 0 0 0.895432 0 2V24.8426C0 25.9471 0.895427 26.8426 2 26.8426H18.0158C19.1204 26.8426 20.0158 25.9471 20.0158 24.8426V2C20.0158 0.895431 19.1204 0 18.0158 0H2Z" fill="#FCA311"/>
<rect x="3.27588" y="6.32468" width="12.0095" height="1.4557" rx="0.727849" fill="#FCA311"/>
<rect x="3.27588" y="10.6918" width="12.0095" height="1.4557" rx="0.727849" fill="#FCA311"/>
<rect x="3.27588" y="14.9209" width="8.00634" height="1.4557" rx="0.727849" fill="#FCA311"/>
</svg>
