<svg width="21" height="22" viewBox="0 0 21 22" fill="none" xmlns="http://www.w3.org/2000/svg">
<path d="M18.8291 11.1692V10.5935V10.0103L20.2833 8.73788C20.5514 8.50161 20.7273 8.17817 20.78 7.82475C20.8327 7.47132 20.7587 7.11065 20.5712 6.80648L18.7837 3.77684C18.6509 3.54679 18.4599 3.35571 18.2299 3.22277C17.9999 3.08983 17.739 3.0197 17.4734 3.01943C17.3087 3.01817 17.145 3.04375 16.9886 3.09517L15.1481 3.71625C14.8303 3.50509 14.4989 3.31532 14.1559 3.14819L13.7696 1.23952C13.7004 0.890807 13.5107 0.577569 13.2337 0.354634C12.9568 0.131699 12.6103 0.0132723 12.2548 0.0200842H8.71012C8.35466 0.0132723 8.00814 0.131699 7.7312 0.354634C7.45426 0.577569 7.26456 0.890807 7.1953 1.23952L6.80902 3.14819C6.46359 3.31528 6.1296 3.50504 5.80923 3.71625L4.0066 3.06488C3.84852 3.02369 3.68483 3.00834 3.52185 3.01943C3.25621 3.0197 2.99531 3.08983 2.76533 3.22277C2.53534 3.35571 2.34436 3.54679 2.21153 3.77684L0.424046 6.80648C0.247257 7.1102 0.181562 7.46593 0.238215 7.81275C0.294867 8.15958 0.470341 8.47591 0.734584 8.70758L2.16609 10.0179V11.1767L0.734584 12.4492C0.462877 12.6825 0.282604 13.0045 0.225755 13.358C0.168906 13.7116 0.239159 14.0739 0.424046 14.3806L2.21153 17.4102C2.34436 17.6403 2.53534 17.8314 2.76533 17.9643C2.99531 18.0972 3.25621 18.1674 3.52185 18.1676C3.68648 18.1689 3.85021 18.1433 4.0066 18.0919L5.8471 17.4708C6.16487 17.682 6.49634 17.8718 6.83931 18.0389L7.22559 19.9476C7.29485 20.2963 7.48456 20.6095 7.76149 20.8324C8.03843 21.0554 8.38496 21.1738 8.74041 21.167H12.3154C12.6708 21.1738 13.0174 21.0554 13.2943 20.8324C13.5712 20.6095 13.7609 20.2963 13.8302 19.9476L14.2165 18.0389C14.5619 17.8718 14.8959 17.682 15.2163 17.4708L17.0492 18.0919C17.2056 18.1433 17.3693 18.1689 17.5339 18.1676C17.7996 18.1674 18.0605 18.0972 18.2905 17.9643C18.5205 17.8314 18.7114 17.6403 18.8443 17.4102L20.5712 14.3806C20.748 14.0769 20.8136 13.7211 20.757 13.3743C20.7003 13.0275 20.5249 12.7112 20.2606 12.4795L18.8291 11.1692ZM17.4734 16.6528L14.8754 15.7742C14.2673 16.2893 13.5722 16.692 12.8229 16.9634L12.2851 19.6825H8.71012L8.17236 16.9937C7.4289 16.7146 6.73761 16.3126 6.12735 15.8045L3.52185 16.6528L1.73437 13.6232L3.79452 11.8054C3.65448 11.0214 3.65448 10.2187 3.79452 9.4347L1.73437 7.56389L3.52185 4.53425L6.11977 5.41285C6.72792 4.89773 7.42298 4.49506 8.17236 4.22371L8.71012 1.50461H12.2851L12.8229 4.19342C13.5663 4.47246 14.2576 4.87444 14.8679 5.38255L17.4734 4.53425L19.2608 7.56389L17.2007 9.38168C17.3407 10.1657 17.3407 10.9683 17.2007 11.7524L19.2608 13.6232L17.4734 16.6528Z" fill="#FCA311"/>
<path d="M10.4986 15.138C9.59976 15.138 8.72113 14.8715 7.9738 14.3721C7.22646 13.8728 6.64399 13.163 6.30003 12.3326C5.95607 11.5022 5.86608 10.5885 6.04142 9.70695C6.21677 8.82541 6.64959 8.01567 7.28515 7.38011C7.9207 6.74456 8.73045 6.31174 9.61199 6.13639C10.4935 5.96104 11.4073 6.05104 12.2377 6.395C13.068 6.73896 13.7778 7.32143 14.2771 8.06877C14.7765 8.8161 15.043 9.69472 15.043 10.5935C15.0491 11.192 14.9357 11.7857 14.7095 12.3398C14.4833 12.8939 14.1487 13.3973 13.7255 13.8205C13.3023 14.2437 12.7989 14.5782 12.2448 14.8044C11.6907 15.0307 11.097 15.1441 10.4986 15.138V15.138ZM10.4986 7.56389C10.0982 7.55456 9.70002 7.62655 9.32823 7.77551C8.95644 7.92446 8.61873 8.14728 8.33552 8.43048C8.05231 8.71369 7.82949 9.05141 7.68054 9.4232C7.53159 9.79498 7.4596 10.1931 7.46892 10.5935C7.4596 10.9939 7.53159 11.3921 7.68054 11.7639C7.82949 12.1357 8.05231 12.4734 8.33552 12.7566C8.61873 13.0398 8.95644 13.2626 9.32823 13.4116C9.70002 13.5605 10.0982 13.6325 10.4986 13.6232C10.899 13.6325 11.2971 13.5605 11.6689 13.4116C12.0407 13.2626 12.3784 13.0398 12.6616 12.7566C12.9448 12.4734 13.1676 12.1357 13.3166 11.7639C13.4655 11.3921 13.5375 10.9939 13.5282 10.5935C13.5375 10.1931 13.4655 9.79498 13.3166 9.4232C13.1676 9.05141 12.9448 8.71369 12.6616 8.43048C12.3784 8.14728 12.0407 7.92446 11.6689 7.77551C11.2971 7.62655 10.899 7.55456 10.4986 7.56389Z" fill="#FCA311"/>
</svg>
